<svg width="100" height="25.5" xmlns="http://www.w3.org/2000/svg">

 <g>
  <title>background</title>
  <rect fill="none" id="canvas_background" height="402" width="582" y="-1" x="-1"/>
 </g>
 <g>
  <title>Layer 1</title>
  <g id="svg_1">
   <path id="svg_2" d="m87.2,6.5c-2,0 -3.7,1.4 -4,3.5l8.2,0c-0.4,-2.2 -2.2,-3.5 -4.2,-3.5z" fill="none"/>
   <path id="svg_3" d="m98.1,1.9c0,-0.2 -0.2,-0.3 -0.3,-0.3l-0.5,0l0,0.6l0.5,0c0.1,0 0.3,-0.1 0.3,-0.3z" fill="none"/>
   <path id="svg_4" d="m97.6,0.4c-1.2,0 -2,0.9 -2,2c0,1.2 0.8,2.1 2,2.1c1.1,0 1.9,-0.9 1.9,-2.1c0,-1.1 -0.8,-2 -1.9,-2zm0.5,3.1l-0.6,-0.9l-0.2,0l0,0.9l-0.5,0l0,-2.3l1.1,0c0.5,0 0.9,0.3 0.9,0.7c0,0.5 -0.4,0.7 -0.6,0.7l0.7,0.9l-0.8,0z" fill="none"/>
   <path id="svg_5" d="m8.2,6.9c-2.8,0 -4.4,2.1 -4.4,4.8c0,2.6 1.6,4.8 4.4,4.8c2.8,0 4.4,-2.1 4.4,-4.8c0,-2.7 -1.6,-4.8 -4.4,-4.8z" fill="none"/>
   <path stroke="#000000" stroke-opacity="0" stroke-width="0" id="svg_6" d="m8.6,3.4c-1.6,0 -3.6,0.5 -4.9,1.7l0,-1.4l-3.7,0l0,21.8l3.9,0l0,-7c1.2,1 3.1,1.5 4.7,1.5c4.5,0 7.9,-3.5 7.9,-8.3c0,-4 -2.9,-8.3 -7.9,-8.3zm-0.4,13c-2.8,0 -4.4,-2.1 -4.4,-4.8c0,-2.6 1.6,-4.8 4.4,-4.8c2.8,0 4.4,2.1 4.4,4.8c0,2.7 -1.6,4.8 -4.4,4.8z" fill="#ffffff"/>
   <rect id="svg_7" height="15.8" width="4.1" fill="#ffffff" y="3.7" x="19.2"/>
   <path id="svg_8" d="m44.3,3.4c-2.7,0 -4,0.8 -5.2,1.6c-1.1,-0.9 -2.6,-1.6 -4.5,-1.6c-1.6,0 -3,0.5 -4.3,1.6l0,-1.3l-3.8,0l0,15.8l4,0l0,-9.2c0,-2.1 1.1,-3.4 3.1,-3.4c1.9,0 3.1,1.1 3.1,3.4l0,9.2l4,0l0,-9.2c0,-2 1,-3.4 3.2,-3.4c1.8,0 2.9,1.2 2.9,3.4l0,9.2l4,0l0,-9.3c0.1,-4 -2.7,-6.8 -6.5,-6.8z" fill="#ffffff"/>
   <path id="svg_9" d="m87.3,3.3c-4.8,0 -8.1,3.7 -8.1,8.4c0,4.8 3.5,8.2 8.4,8.2c3.9,0 6,-1.7 6.8,-3.1l-2.9,-1.6c-0.7,0.8 -2.1,1.4 -3.7,1.4c-2.5,0 -4.3,-1.4 -4.7,-3.8l11.9,0c0.8,-5.9 -2.7,-9.5 -7.7,-9.5zm-4.1,6.7c0.3,-2.2 2,-3.5 4,-3.5c2,0 3.7,1.3 4.1,3.5l-8.1,0z" fill="#ffffff"/>
   <polygon id="svg_10" points="69.7,3.6 64.4,3.6 58,10 58,3.6 54,3.6 54,19.6 58,19.6 58,12.4 65,19.6 70.5,19.6 62.3,11  " fill="#ffffff"/>
   <rect id="svg_11" height="16" width="4.1" fill="#ffffff" y="3.6" x="72.4"/>
   <path id="svg_12" d="m97.6,0c-1.4,0 -2.4,1 -2.4,2.4c0,1.4 1,2.4 2.4,2.4c1.4,0 2.4,-1.1 2.4,-2.4c0,-1.4 -1,-2.4 -2.4,-2.4zm0,4.4c-1.2,0 -2,-0.9 -2,-2.1c0,-1.1 0.8,-2 2,-2c1.1,0 1.9,0.9 1.9,2c0,1.3 -0.8,2.1 -1.9,2.1z" fill="#ffffff"/>
   <path id="svg_13" d="m98.6,1.9c0,-0.5 -0.4,-0.7 -0.9,-0.7l-1.1,0l0,2.3l0.5,0l0,-0.8l0.2,0l0.6,0.9l0.6,0l-0.5,-1c0.3,0 0.6,-0.2 0.6,-0.7zm-1.4,0.3l0,-0.6l0.5,0c0.2,0 0.3,0.1 0.3,0.3c0,0.2 -0.2,0.3 -0.3,0.3l-0.5,0z" fill="#ffffff"/>
  </g>
 </g>
</svg>